<?xml version="1.0" encoding="UTF-8" standalone="no"?>
<!DOCTYPE svg PUBLIC "-//W3C//DTD SVG 1.1//EN"
 "http://www.w3.org/Graphics/SVG/1.1/DTD/svg11.dtd">
<!-- Generated by graphviz version 8.0.3 (20230416.2022)
 -->
<!-- Pages: 1 -->
<svg width="1342pt" height="210pt"
 viewBox="0.00 0.00 1342.00 210.00" xmlns="http://www.w3.org/2000/svg" xmlns:xlink="http://www.w3.org/1999/xlink">
<g id="graph0" class="graph" transform="scale(1 1) rotate(0) translate(4 206)">
<polygon fill="white" stroke="none" points="-4,4 -4,-206 1338,-206 1338,4 -4,4"/>
<!-- 0 -->
<g id="node1" class="node">
<title>0</title>
<polygon fill="none" stroke="black" points="0,-165.5 0,-201.5 167,-201.5 167,-165.5 0,-165.5"/>
<text text-anchor="middle" x="42.5" y="-179.8" font-family="Times,serif" font-size="14.00">data &#45;2.0000</text>
<polyline fill="none" stroke="black" points="85,-165.5 85,-201.5"/>
<text text-anchor="middle" x="126" y="-179.8" font-family="Times,serif" font-size="14.00">grad 0.0000</text>
</g>
<!-- 11 -->
<g id="node12" class="node">
<title>11</title>
<polygon fill="none" stroke="black" points="203,-110.5 203,-146.5 257,-146.5 257,-110.5 203,-110.5"/>
<text text-anchor="middle" x="230" y="-124.8" font-family="Times,serif" font-size="14.00">*</text>
</g>
<!-- 0&#45;&gt;11 -->
<g id="edge7" class="edge">
<title>0&#45;&gt;11</title>
<path fill="none" stroke="black" d="M142.03,-165.55C150.46,-162.67 158.99,-159.61 167,-156.5 175.53,-153.19 184.58,-149.32 193.05,-145.53"/>
<polygon fill="black" stroke="black" points="194.37,-148.32 202.02,-140.99 191.47,-141.94 194.37,-148.32"/>
</g>
<!-- 1 -->
<g id="node2" class="node">
<title>1</title>
<polygon fill="none" stroke="black" points="1172,-54.5 1172,-90.5 1334,-90.5 1334,-54.5 1172,-54.5"/>
<text text-anchor="middle" x="1212" y="-68.8" font-family="Times,serif" font-size="14.00">data 0.0000</text>
<polyline fill="none" stroke="black" points="1252,-54.5 1252,-90.5"/>
<text text-anchor="middle" x="1293" y="-68.8" font-family="Times,serif" font-size="14.00">grad 1.0000</text>
</g>
<!-- 2 -->
<g id="node3" class="node">
<title>2</title>
<polygon fill="none" stroke="black" points="1082,-54.5 1082,-90.5 1136,-90.5 1136,-54.5 1082,-54.5"/>
<text text-anchor="middle" x="1109" y="-68.8" font-family="Times,serif" font-size="14.00">ReLU</text>
</g>
<!-- 2&#45;&gt;1 -->
<g id="edge1" class="edge">
<title>2&#45;&gt;1</title>
<path fill="none" stroke="black" d="M1135.72,-72.5C1143.24,-72.5 1151.93,-72.5 1161.1,-72.5"/>
<polygon fill="black" stroke="black" points="1161.05,-76 1171.05,-72.5 1161.05,-69 1161.05,-76"/>
</g>
<!-- 3 -->
<g id="node4" class="node">
<title>3</title>
<polygon fill="none" stroke="black" points="2.5,-110.5 2.5,-146.5 164.5,-146.5 164.5,-110.5 2.5,-110.5"/>
<text text-anchor="middle" x="42.5" y="-124.8" font-family="Times,serif" font-size="14.00">data 0.9745</text>
<polyline fill="none" stroke="black" points="82.5,-110.5 82.5,-146.5"/>
<text text-anchor="middle" x="123.5" y="-124.8" font-family="Times,serif" font-size="14.00">grad 0.0000</text>
</g>
<!-- 3&#45;&gt;11 -->
<g id="edge6" class="edge">
<title>3&#45;&gt;11</title>
<path fill="none" stroke="black" d="M164.36,-128.5C174.16,-128.5 183.77,-128.5 192.47,-128.5"/>
<polygon fill="black" stroke="black" points="192.3,-132 202.3,-128.5 192.3,-125 192.3,-132"/>
</g>
<!-- 4 -->
<g id="node5" class="node">
<title>4</title>
<polygon fill="none" stroke="black" points="2.5,-55.5 2.5,-91.5 164.5,-91.5 164.5,-55.5 2.5,-55.5"/>
<text text-anchor="middle" x="42.5" y="-69.8" font-family="Times,serif" font-size="14.00">data 1.0000</text>
<polyline fill="none" stroke="black" points="82.5,-55.5 82.5,-91.5"/>
<text text-anchor="middle" x="123.5" y="-69.8" font-family="Times,serif" font-size="14.00">grad 0.0000</text>
</g>
<!-- 7 -->
<g id="node8" class="node">
<title>7</title>
<polygon fill="none" stroke="black" points="203,-55.5 203,-91.5 257,-91.5 257,-55.5 203,-55.5"/>
<text text-anchor="middle" x="230" y="-69.8" font-family="Times,serif" font-size="14.00">*</text>
</g>
<!-- 4&#45;&gt;7 -->
<g id="edge13" class="edge">
<title>4&#45;&gt;7</title>
<path fill="none" stroke="black" d="M164.36,-73.5C174.16,-73.5 183.77,-73.5 192.47,-73.5"/>
<polygon fill="black" stroke="black" points="192.3,-77 202.3,-73.5 192.3,-70 192.3,-77"/>
</g>
<!-- 5 -->
<g id="node6" class="node">
<title>5</title>
<polygon fill="none" stroke="black" points="2.5,-0.5 2.5,-36.5 164.5,-36.5 164.5,-0.5 2.5,-0.5"/>
<text text-anchor="middle" x="42.5" y="-14.8" font-family="Times,serif" font-size="14.00">data 0.4158</text>
<polyline fill="none" stroke="black" points="82.5,-0.5 82.5,-36.5"/>
<text text-anchor="middle" x="123.5" y="-14.8" font-family="Times,serif" font-size="14.00">grad 0.0000</text>
</g>
<!-- 5&#45;&gt;7 -->
<g id="edge8" class="edge">
<title>5&#45;&gt;7</title>
<path fill="none" stroke="black" d="M139.32,-36.39C148.6,-39.62 158.11,-43.06 167,-46.5 175.56,-49.81 184.68,-53.62 193.21,-57.31"/>
<polygon fill="black" stroke="black" points="191.69,-60.9 202.26,-61.72 194.51,-54.49 191.69,-60.9"/>
</g>
<!-- 6 -->
<g id="node7" class="node">
<title>6</title>
<polygon fill="none" stroke="black" points="295.5,-55.5 295.5,-91.5 457.5,-91.5 457.5,-55.5 295.5,-55.5"/>
<text text-anchor="middle" x="335.5" y="-69.8" font-family="Times,serif" font-size="14.00">data 0.4158</text>
<polyline fill="none" stroke="black" points="375.5,-55.5 375.5,-91.5"/>
<text text-anchor="middle" x="416.5" y="-69.8" font-family="Times,serif" font-size="14.00">grad 0.0000</text>
</g>
<!-- 13 -->
<g id="node14" class="node">
<title>13</title>
<polygon fill="none" stroke="black" points="496,-82.5 496,-118.5 550,-118.5 550,-82.5 496,-82.5"/>
<text text-anchor="middle" x="523" y="-96.8" font-family="Times,serif" font-size="14.00">+</text>
</g>
<!-- 6&#45;&gt;13 -->
<g id="edge10" class="edge">
<title>6&#45;&gt;13</title>
<path fill="none" stroke="black" d="M457.36,-88.42C467.27,-90.27 476.99,-92.09 485.76,-93.73"/>
<polygon fill="black" stroke="black" points="484.83,-97.3 495.3,-95.7 486.11,-90.42 484.83,-97.3"/>
</g>
<!-- 7&#45;&gt;6 -->
<g id="edge2" class="edge">
<title>7&#45;&gt;6</title>
<path fill="none" stroke="black" d="M256.83,-73.5C265.09,-73.5 274.74,-73.5 284.92,-73.5"/>
<polygon fill="black" stroke="black" points="284.67,-77 294.67,-73.5 284.67,-70 284.67,-77"/>
</g>
<!-- 8 -->
<g id="node9" class="node">
<title>8</title>
<polygon fill="none" stroke="black" points="879,-54.5 879,-90.5 1046,-90.5 1046,-54.5 879,-54.5"/>
<text text-anchor="middle" x="921.5" y="-68.8" font-family="Times,serif" font-size="14.00">data &#45;1.5332</text>
<polyline fill="none" stroke="black" points="964,-54.5 964,-90.5"/>
<text text-anchor="middle" x="1005" y="-68.8" font-family="Times,serif" font-size="14.00">grad 0.0000</text>
</g>
<!-- 8&#45;&gt;2 -->
<g id="edge14" class="edge">
<title>8&#45;&gt;2</title>
<path fill="none" stroke="black" d="M1045.88,-72.5C1054.74,-72.5 1063.39,-72.5 1071.28,-72.5"/>
<polygon fill="black" stroke="black" points="1071.25,-76 1081.25,-72.5 1071.25,-69 1071.25,-76"/>
</g>
<!-- 9 -->
<g id="node10" class="node">
<title>9</title>
<polygon fill="none" stroke="black" points="789,-54.5 789,-90.5 843,-90.5 843,-54.5 789,-54.5"/>
<text text-anchor="middle" x="816" y="-68.8" font-family="Times,serif" font-size="14.00">+</text>
</g>
<!-- 9&#45;&gt;8 -->
<g id="edge3" class="edge">
<title>9&#45;&gt;8</title>
<path fill="none" stroke="black" d="M842.83,-72.5C850.36,-72.5 859.05,-72.5 868.24,-72.5"/>
<polygon fill="black" stroke="black" points="868.22,-76 878.22,-72.5 868.22,-69 868.22,-76"/>
</g>
<!-- 10 -->
<g id="node11" class="node">
<title>10</title>
<polygon fill="none" stroke="black" points="293,-110.5 293,-146.5 460,-146.5 460,-110.5 293,-110.5"/>
<text text-anchor="middle" x="335.5" y="-124.8" font-family="Times,serif" font-size="14.00">data &#45;1.9490</text>
<polyline fill="none" stroke="black" points="378,-110.5 378,-146.5"/>
<text text-anchor="middle" x="419" y="-124.8" font-family="Times,serif" font-size="14.00">grad 0.0000</text>
</g>
<!-- 10&#45;&gt;13 -->
<g id="edge9" class="edge">
<title>10&#45;&gt;13</title>
<path fill="none" stroke="black" d="M459.88,-112.54C468.84,-110.8 477.59,-109.11 485.56,-107.56"/>
<polygon fill="black" stroke="black" points="486.1,-110.83 495.25,-105.49 484.77,-103.96 486.1,-110.83"/>
</g>
<!-- 11&#45;&gt;10 -->
<g id="edge4" class="edge">
<title>11&#45;&gt;10</title>
<path fill="none" stroke="black" d="M256.83,-128.5C264.36,-128.5 273.05,-128.5 282.24,-128.5"/>
<polygon fill="black" stroke="black" points="282.22,-132 292.22,-128.5 282.22,-125 282.22,-132"/>
</g>
<!-- 12 -->
<g id="node13" class="node">
<title>12</title>
<polygon fill="none" stroke="black" points="586,-82.5 586,-118.5 753,-118.5 753,-82.5 586,-82.5"/>
<text text-anchor="middle" x="628.5" y="-96.8" font-family="Times,serif" font-size="14.00">data &#45;1.5332</text>
<polyline fill="none" stroke="black" points="671,-82.5 671,-118.5"/>
<text text-anchor="middle" x="712" y="-96.8" font-family="Times,serif" font-size="14.00">grad 0.0000</text>
</g>
<!-- 12&#45;&gt;9 -->
<g id="edge11" class="edge">
<title>12&#45;&gt;9</title>
<path fill="none" stroke="black" d="M752.88,-84.54C761.84,-82.8 770.59,-81.11 778.56,-79.56"/>
<polygon fill="black" stroke="black" points="779.1,-82.83 788.25,-77.49 777.77,-75.96 779.1,-82.83"/>
</g>
<!-- 13&#45;&gt;12 -->
<g id="edge5" class="edge">
<title>13&#45;&gt;12</title>
<path fill="none" stroke="black" d="M549.83,-100.5C557.36,-100.5 566.05,-100.5 575.24,-100.5"/>
<polygon fill="black" stroke="black" points="575.22,-104 585.22,-100.5 575.22,-97 575.22,-104"/>
</g>
<!-- 14 -->
<g id="node15" class="node">
<title>14</title>
<polygon fill="none" stroke="black" points="588.5,-27.5 588.5,-63.5 750.5,-63.5 750.5,-27.5 588.5,-27.5"/>
<text text-anchor="middle" x="628.5" y="-41.8" font-family="Times,serif" font-size="14.00">data 0.0000</text>
<polyline fill="none" stroke="black" points="668.5,-27.5 668.5,-63.5"/>
<text text-anchor="middle" x="709.5" y="-41.8" font-family="Times,serif" font-size="14.00">grad 0.0000</text>
</g>
<!-- 14&#45;&gt;9 -->
<g id="edge12" class="edge">
<title>14&#45;&gt;9</title>
<path fill="none" stroke="black" d="M750.36,-60.42C760.27,-62.27 769.99,-64.09 778.76,-65.73"/>
<polygon fill="black" stroke="black" points="777.83,-69.3 788.3,-67.7 779.11,-62.42 777.83,-69.3"/>
</g>
</g>
</svg>
