<?xml version="1.0" encoding="UTF-8" standalone="no"?>
<!DOCTYPE svg PUBLIC "-//W3C//DTD SVG 1.1//EN"
 "http://www.w3.org/Graphics/SVG/1.1/DTD/svg11.dtd">
<!-- Generated by graphviz version 8.0.3 (20230416.2022)
 -->
<!-- Pages: 1 -->
<svg width="1034pt" height="127pt"
 viewBox="0.00 0.00 1034.00 127.00" xmlns="http://www.w3.org/2000/svg" xmlns:xlink="http://www.w3.org/1999/xlink">
<g id="graph0" class="graph" transform="scale(1 1) rotate(0) translate(4 123)">
<polygon fill="white" stroke="none" points="-4,4 -4,-123 1030,-123 1030,4 -4,4"/>
<!-- 0 -->
<g id="node1" class="node">
<title>0</title>
<polygon fill="none" stroke="black" points="864,-54.5 864,-90.5 1026,-90.5 1026,-54.5 864,-54.5"/>
<text text-anchor="middle" x="904" y="-68.8" font-family="Times,serif" font-size="14.00">data 3.0000</text>
<polyline fill="none" stroke="black" points="944,-54.5 944,-90.5"/>
<text text-anchor="middle" x="985" y="-68.8" font-family="Times,serif" font-size="14.00">grad 1.0000</text>
</g>
<!-- 1 -->
<g id="node2" class="node">
<title>1</title>
<polygon fill="none" stroke="black" points="774,-54.5 774,-90.5 828,-90.5 828,-54.5 774,-54.5"/>
<text text-anchor="middle" x="801" y="-68.8" font-family="Times,serif" font-size="14.00">ReLU</text>
</g>
<!-- 1&#45;&gt;0 -->
<g id="edge1" class="edge">
<title>1&#45;&gt;0</title>
<path fill="none" stroke="black" d="M827.72,-72.5C835.24,-72.5 843.93,-72.5 853.1,-72.5"/>
<polygon fill="black" stroke="black" points="853.05,-76 863.05,-72.5 853.05,-69 853.05,-76"/>
</g>
<!-- 2 -->
<g id="node3" class="node">
<title>2</title>
<polygon fill="none" stroke="black" points="288,-82.5 288,-118.5 450,-118.5 450,-82.5 288,-82.5"/>
<text text-anchor="middle" x="328" y="-96.8" font-family="Times,serif" font-size="14.00">data 1.0000</text>
<polyline fill="none" stroke="black" points="368,-82.5 368,-118.5"/>
<text text-anchor="middle" x="409" y="-96.8" font-family="Times,serif" font-size="14.00">grad 1.0000</text>
</g>
<!-- 5 -->
<g id="node6" class="node">
<title>5</title>
<polygon fill="none" stroke="black" points="486,-54.5 486,-90.5 540,-90.5 540,-54.5 486,-54.5"/>
<text text-anchor="middle" x="513" y="-68.8" font-family="Times,serif" font-size="14.00">+</text>
</g>
<!-- 2&#45;&gt;5 -->
<g id="edge6" class="edge">
<title>2&#45;&gt;5</title>
<path fill="none" stroke="black" d="M449.72,-84.78C458.65,-83.02 467.41,-81.29 475.39,-79.72"/>
<polygon fill="black" stroke="black" points="475.98,-82.97 485.11,-77.61 474.62,-76.11 475.98,-82.97"/>
</g>
<!-- 3 -->
<g id="node4" class="node">
<title>3</title>
<polygon fill="none" stroke="black" points="0,-55.5 0,-91.5 162,-91.5 162,-55.5 0,-55.5"/>
<text text-anchor="middle" x="40" y="-69.8" font-family="Times,serif" font-size="14.00">data 2.0000</text>
<polyline fill="none" stroke="black" points="80,-55.5 80,-91.5"/>
<text text-anchor="middle" x="121" y="-69.8" font-family="Times,serif" font-size="14.00">grad 1.0000</text>
</g>
<!-- 7 -->
<g id="node8" class="node">
<title>7</title>
<polygon fill="none" stroke="black" points="198,-27.5 198,-63.5 252,-63.5 252,-27.5 198,-27.5"/>
<text text-anchor="middle" x="225" y="-41.8" font-family="Times,serif" font-size="14.00">*</text>
</g>
<!-- 3&#45;&gt;7 -->
<g id="edge4" class="edge">
<title>3&#45;&gt;7</title>
<path fill="none" stroke="black" d="M161.72,-57.78C170.65,-56.02 179.41,-54.29 187.39,-52.72"/>
<polygon fill="black" stroke="black" points="187.98,-55.97 197.11,-50.61 186.62,-49.11 187.98,-55.97"/>
</g>
<!-- 4 -->
<g id="node5" class="node">
<title>4</title>
<polygon fill="none" stroke="black" points="576,-54.5 576,-90.5 738,-90.5 738,-54.5 576,-54.5"/>
<text text-anchor="middle" x="616" y="-68.8" font-family="Times,serif" font-size="14.00">data 3.0000</text>
<polyline fill="none" stroke="black" points="656,-54.5 656,-90.5"/>
<text text-anchor="middle" x="697" y="-68.8" font-family="Times,serif" font-size="14.00">grad 1.0000</text>
</g>
<!-- 4&#45;&gt;1 -->
<g id="edge7" class="edge">
<title>4&#45;&gt;1</title>
<path fill="none" stroke="black" d="M737.72,-72.5C746.55,-72.5 755.2,-72.5 763.11,-72.5"/>
<polygon fill="black" stroke="black" points="763.11,-76 773.11,-72.5 763.11,-69 763.11,-76"/>
</g>
<!-- 5&#45;&gt;4 -->
<g id="edge2" class="edge">
<title>5&#45;&gt;4</title>
<path fill="none" stroke="black" d="M539.72,-72.5C547.24,-72.5 555.93,-72.5 565.1,-72.5"/>
<polygon fill="black" stroke="black" points="565.05,-76 575.05,-72.5 565.05,-69 565.05,-76"/>
</g>
<!-- 6 -->
<g id="node7" class="node">
<title>6</title>
<polygon fill="none" stroke="black" points="288,-27.5 288,-63.5 450,-63.5 450,-27.5 288,-27.5"/>
<text text-anchor="middle" x="328" y="-41.8" font-family="Times,serif" font-size="14.00">data 2.0000</text>
<polyline fill="none" stroke="black" points="368,-27.5 368,-63.5"/>
<text text-anchor="middle" x="409" y="-41.8" font-family="Times,serif" font-size="14.00">grad 1.0000</text>
</g>
<!-- 6&#45;&gt;5 -->
<g id="edge5" class="edge">
<title>6&#45;&gt;5</title>
<path fill="none" stroke="black" d="M449.72,-60.66C458.65,-62.36 467.41,-64.02 475.39,-65.54"/>
<polygon fill="black" stroke="black" points="474.63,-69.15 485.11,-67.58 475.94,-62.27 474.63,-69.15"/>
</g>
<!-- 7&#45;&gt;6 -->
<g id="edge3" class="edge">
<title>7&#45;&gt;6</title>
<path fill="none" stroke="black" d="M251.72,-45.5C259.24,-45.5 267.93,-45.5 277.1,-45.5"/>
<polygon fill="black" stroke="black" points="277.05,-49 287.05,-45.5 277.05,-42 277.05,-49"/>
</g>
<!-- 8 -->
<g id="node9" class="node">
<title>8</title>
<polygon fill="none" stroke="black" points="0,-0.5 0,-36.5 162,-36.5 162,-0.5 0,-0.5"/>
<text text-anchor="middle" x="40" y="-14.8" font-family="Times,serif" font-size="14.00">data 1.0000</text>
<polyline fill="none" stroke="black" points="80,-0.5 80,-36.5"/>
<text text-anchor="middle" x="121" y="-14.8" font-family="Times,serif" font-size="14.00">grad 2.0000</text>
</g>
<!-- 8&#45;&gt;7 -->
<g id="edge8" class="edge">
<title>8&#45;&gt;7</title>
<path fill="none" stroke="black" d="M161.72,-33.66C170.65,-35.36 179.41,-37.02 187.39,-38.54"/>
<polygon fill="black" stroke="black" points="186.63,-42.15 197.11,-40.58 187.94,-35.27 186.63,-42.15"/>
</g>
</g>
</svg>
